name rise49.8558peak67.6521fall70.3087.mot
datacolumns 19
datarows 27
range 22.41991100000000 22.46324500000000
endheader
time	ground_force1_vx	ground_force1_vy	ground_force1_vz	ground_force1_px	ground_force1_py	ground_force1_pz	ground_force2_vx	ground_force2_vy	ground_force2_vz	ground_force2_px	ground_force2_py	ground_force2_pz	ground_torque1_x	ground_torque1_y	ground_torque1_z	ground_torque2_x	ground_torque2_y	ground_torque2_z	
22.41991100000000	67.50561999999999	731.48925599999995	58.65931000000000	0.37908800000000	0.00000000000000	0.11335300000000	0.00000000000000	0.00000000000000	0.00000000000000	0.00000000000000	0.00000000000000	0.00000000000000	0.00000000000000	28.32834500000000	0.00000000000000	0.00000000000000	0.00000000000000	0.00000000000000	
22.42158100000000	66.92478300000001	734.56944399999998	58.85699800000000	0.37793700000000	0.00000000000000	0.11337900000000	0.00000000000000	0.00000000000000	0.00000000000000	0.00000000000000	0.00000000000000	0.00000000000000	0.00000000000000	28.43193800000000	0.00000000000000	0.00000000000000	0.00000000000000	0.00000000000000	
22.42324700000000	66.34118700000001	737.57800999999995	59.05146300000000	0.37681100000000	0.00000000000000	0.11340400000000	0.00000000000000	0.00000000000000	0.00000000000000	0.00000000000000	0.00000000000000	0.00000000000000	0.00000000000000	28.53611000000000	0.00000000000000	0.00000000000000	0.00000000000000	0.00000000000000	
22.42491400000000	65.75513700000000	740.51193000000001	59.24204600000000	0.37571000000000	0.00000000000000	0.11342900000000	0.00000000000000	0.00000000000000	0.00000000000000	0.00000000000000	0.00000000000000	0.00000000000000	0.00000000000000	28.64045700000000	0.00000000000000	0.00000000000000	0.00000000000000	0.00000000000000	
22.42658400000000	65.16688900000000	743.36816499999998	59.42804300000000	0.37463300000000	0.00000000000000	0.11345200000000	0.00000000000000	0.00000000000000	0.00000000000000	0.00000000000000	0.00000000000000	0.00000000000000	0.00000000000000	28.74454200000000	0.00000000000000	0.00000000000000	0.00000000000000	0.00000000000000	
22.42824500000000	64.57666000000000	746.14368600000000	59.60871300000000	0.37358100000000	0.00000000000000	0.11347500000000	0.00000000000000	0.00000000000000	0.00000000000000	0.00000000000000	0.00000000000000	0.00000000000000	0.00000000000000	28.84789400000000	0.00000000000000	0.00000000000000	0.00000000000000	0.00000000000000	
22.42991000000000	63.98462200000000	748.83548599999995	59.78328200000000	0.37255200000000	0.00000000000000	0.11349600000000	0.00000000000000	0.00000000000000	0.00000000000000	0.00000000000000	0.00000000000000	0.00000000000000	0.00000000000000	28.95001600000000	0.00000000000000	0.00000000000000	0.00000000000000	0.00000000000000	
22.43158400000000	63.39091400000000	751.44059800000002	59.95095200000000	0.37154700000000	0.00000000000000	0.11351700000000	0.00000000000000	0.00000000000000	0.00000000000000	0.00000000000000	0.00000000000000	0.00000000000000	0.00000000000000	29.05038900000000	0.00000000000000	0.00000000000000	0.00000000000000	0.00000000000000	
22.43324800000000	62.79563700000000	753.95611899999994	60.11090600000000	0.37056600000000	0.00000000000000	0.11353600000000	0.00000000000000	0.00000000000000	0.00000000000000	0.00000000000000	0.00000000000000	0.00000000000000	0.00000000000000	29.14847300000000	0.00000000000000	0.00000000000000	0.00000000000000	0.00000000000000	
22.43491200000000	62.19886400000000	756.37921600000004	60.26231300000000	0.36960700000000	0.00000000000000	0.11355400000000	0.00000000000000	0.00000000000000	0.00000000000000	0.00000000000000	0.00000000000000	0.00000000000000	0.00000000000000	29.24371500000000	0.00000000000000	0.00000000000000	0.00000000000000	0.00000000000000	
22.43657800000000	61.60063900000000	758.70715099999995	60.40434000000000	0.36866900000000	0.00000000000000	0.11357100000000	0.00000000000000	0.00000000000000	0.00000000000000	0.00000000000000	0.00000000000000	0.00000000000000	0.00000000000000	29.33555000000000	0.00000000000000	0.00000000000000	0.00000000000000	0.00000000000000	
22.43824500000000	61.00098100000000	760.93729399999995	60.53615100000000	0.36775200000000	0.00000000000000	0.11358700000000	0.00000000000000	0.00000000000000	0.00000000000000	0.00000000000000	0.00000000000000	0.00000000000000	0.00000000000000	29.42340700000000	0.00000000000000	0.00000000000000	0.00000000000000	0.00000000000000	
22.43991100000000	60.39988800000000	763.06713500000001	60.65692200000000	0.36685500000000	0.00000000000000	0.11360100000000	0.00000000000000	0.00000000000000	0.00000000000000	0.00000000000000	0.00000000000000	0.00000000000000	0.00000000000000	29.50671500000000	0.00000000000000	0.00000000000000	0.00000000000000	0.00000000000000	
22.44158300000000	59.79734100000000	765.09430299999997	60.76583900000000	0.36597700000000	0.00000000000000	0.11361300000000	0.00000000000000	0.00000000000000	0.00000000000000	0.00000000000000	0.00000000000000	0.00000000000000	0.00000000000000	29.58490100000000	0.00000000000000	0.00000000000000	0.00000000000000	0.00000000000000	
22.44325200000000	59.19330600000000	767.01657599999999	60.86211200000000	0.36511700000000	0.00000000000000	0.11362400000000	0.00000000000000	0.00000000000000	0.00000000000000	0.00000000000000	0.00000000000000	0.00000000000000	0.00000000000000	29.65740200000000	0.00000000000000	0.00000000000000	0.00000000000000	0.00000000000000	
22.44491700000000	58.58773800000000	768.83189400000003	60.94497500000000	0.36427300000000	0.00000000000000	0.11363400000000	0.00000000000000	0.00000000000000	0.00000000000000	0.00000000000000	0.00000000000000	0.00000000000000	0.00000000000000	29.72366300000000	0.00000000000000	0.00000000000000	0.00000000000000	0.00000000000000	
22.44658300000000	57.98058200000000	770.53837299999998	61.01369500000000	0.36344400000000	0.00000000000000	0.11364200000000	0.00000000000000	0.00000000000000	0.00000000000000	0.00000000000000	0.00000000000000	0.00000000000000	0.00000000000000	29.78314300000000	0.00000000000000	0.00000000000000	0.00000000000000	0.00000000000000	
22.44825200000000	57.37177900000000	772.13431400000002	61.06757600000000	0.36262900000000	0.00000000000000	0.11364800000000	0.00000000000000	0.00000000000000	0.00000000000000	0.00000000000000	0.00000000000000	0.00000000000000	0.00000000000000	29.83532000000000	0.00000000000000	0.00000000000000	0.00000000000000	0.00000000000000	
22.44991500000000	56.76126900000000	773.61821199999997	61.10596600000000	0.36182600000000	0.00000000000000	0.11365300000000	0.00000000000000	0.00000000000000	0.00000000000000	0.00000000000000	0.00000000000000	0.00000000000000	0.00000000000000	29.87969200000000	0.00000000000000	0.00000000000000	0.00000000000000	0.00000000000000	
22.45157800000000	56.14898900000000	774.98876499999994	61.12826000000000	0.36103500000000	0.00000000000000	0.11365700000000	0.00000000000000	0.00000000000000	0.00000000000000	0.00000000000000	0.00000000000000	0.00000000000000	0.00000000000000	29.91578200000000	0.00000000000000	0.00000000000000	0.00000000000000	0.00000000000000	
22.45325000000000	55.53488200000000	776.24488599999995	61.13390500000000	0.36025300000000	0.00000000000000	0.11365800000000	0.00000000000000	0.00000000000000	0.00000000000000	0.00000000000000	0.00000000000000	0.00000000000000	0.00000000000000	29.94314100000000	0.00000000000000	0.00000000000000	0.00000000000000	0.00000000000000	
22.45491700000000	54.91889700000000	777.38570200000004	61.12240400000000	0.35947900000000	0.00000000000000	0.11365900000000	0.00000000000000	0.00000000000000	0.00000000000000	0.00000000000000	0.00000000000000	0.00000000000000	0.00000000000000	29.96135200000000	0.00000000000000	0.00000000000000	0.00000000000000	0.00000000000000	
22.45658000000000	54.30098900000000	778.41056700000001	61.09332200000000	0.35871100000000	0.00000000000000	0.11365700000000	0.00000000000000	0.00000000000000	0.00000000000000	0.00000000000000	0.00000000000000	0.00000000000000	0.00000000000000	29.97003000000000	0.00000000000000	0.00000000000000	0.00000000000000	0.00000000000000	
22.45824400000000	53.68112500000000	779.31906000000004	61.04628300000000	0.35794800000000	0.00000000000000	0.11365500000000	0.00000000000000	0.00000000000000	0.00000000000000	0.00000000000000	0.00000000000000	0.00000000000000	0.00000000000000	29.96882800000000	0.00000000000000	0.00000000000000	0.00000000000000	0.00000000000000	
22.45991500000000	53.05928300000000	780.11099500000000	60.98098000000000	0.35718900000000	0.00000000000000	0.11365000000000	0.00000000000000	0.00000000000000	0.00000000000000	0.00000000000000	0.00000000000000	0.00000000000000	0.00000000000000	29.95743500000000	0.00000000000000	0.00000000000000	0.00000000000000	0.00000000000000	
22.46157800000000	52.43545600000000	780.78641800000003	60.89717300000000	0.35643100000000	0.00000000000000	0.11364400000000	0.00000000000000	0.00000000000000	0.00000000000000	0.00000000000000	0.00000000000000	0.00000000000000	0.00000000000000	29.93558300000000	0.00000000000000	0.00000000000000	0.00000000000000	0.00000000000000	
22.46324500000000	51.80965400000000	781.34561099999996	60.79469100000000	0.35567300000000	0.00000000000000	0.11363700000000	0.00000000000000	0.00000000000000	0.00000000000000	0.00000000000000	0.00000000000000	0.00000000000000	0.00000000000000	29.90304400000000	0.00000000000000	0.00000000000000	0.00000000000000	0.00000000000000	
